<?xml version="1.0" encoding="utf-8"?>
<!-- Generator: Adobe Illustrator 17.0.0, SVG Export Plug-In . SVG Version: 6.00 Build 0)  -->
<!DOCTYPE svg PUBLIC "-//W3C//DTD SVG 1.1//EN" "http://www.w3.org/Graphics/SVG/1.1/DTD/svg11.dtd" [
	<!ENTITY st0 "display:none;">
	<!ENTITY st1 "display:inline;">
]>
<svg version="1.1" xmlns="http://www.w3.org/2000/svg" xmlns:xlink="http://www.w3.org/1999/xlink" x="0px" y="0px" width="90px"
	 height="90px" viewBox="0 0 90 90" style="enable-background:new 0 0 90 90;" xml:space="preserve">
<g id="Layer_1" style="&st0;">
	<g style="&st1;">
		<path d="M35.443,55.855l-6.968,6.117h-3.063c-0.197,0-0.357,0.16-0.357,0.357v1.474h10.379v-1.474c0-0.197-0.16-0.357-0.357-0.357
			h-2.992l4.873-4.276C36.283,57.252,35.751,56.611,35.443,55.855z"/>
		<path d="M35.958,44.75c0.389,0.615,0.738,1.317,0.993,2.107l3.272,3.495c0.257,0.004,0.522,0.008,0.792,0.015
			c-0.207-0.35-0.312-0.752-0.298-1.169c0.004-0.119,0.007-0.234,0.007-0.346c-0.003-1.272-0.248-2.324-0.748-3.215
			c-0.404-0.711-0.962-1.298-1.707-1.793c-0.52-0.349-1.084-0.605-1.614-0.794l-0.066,0.911
			C36.561,44.335,36.302,44.644,35.958,44.75z"/>
		<path d="M64.588,61.972h-4.637l-1.253-3.465c0.738-1.054,1.173-2.336,1.173-3.72c0-2.993-2.026-5.512-4.782-6.262l-1.85-5.117
			l1.601-1.405c0.247-0.217,0.272-0.594,0.055-0.841l-0.786-0.896c-0.217-0.248-0.594-0.272-0.841-0.055l-0.833,0.732l-1.042-2.881
			l1.591-1.408c0.231-0.205,0.253-0.558,0.048-0.789c-0.205-0.231-0.558-0.253-0.789-0.048l-2.214,1.96
			c0.125,0.117,0.229,0.254,0.307,0.406c0.105,0.202,0.165,0.429,0.167,0.667c0,0.051-0.002,0.102-0.007,0.154
			c-0.004,0.042-0.01,0.083-0.017,0.123l0.969,2.682l-6.474,5.683c0.048,0.445,0.073,0.9,0.071,1.364
			c0,0.162-0.003,0.326-0.008,0.491c-0.015,0.443-0.161,0.85-0.4,1.185c0.149,0.01,0.299,0.021,0.449,0.033l6.35-5.573l1.211,3.349
			c-1.821,0.205-3.414,1.162-4.46,2.554c-0.07,0.093-0.137,0.187-0.201,0.284c-1.072-0.147-2.172-0.254-3.222-0.331
			c-0.126-0.009-0.25-0.018-0.374-0.026c-0.389,0.381-0.922,0.614-1.512,0.614c-0.024,0-0.048,0-0.071-0.001
			c-0.044-0.001-0.088-0.007-0.132-0.011c-0.301-0.028-0.588-0.116-0.846-0.259c-0.195-0.108-0.374-0.246-0.531-0.414
			c-0.005-0.006-0.01-0.012-0.015-0.018c-0.017-0.019-0.033-0.039-0.049-0.058c-0.065-0.002-0.129-0.003-0.192-0.005
			c-0.353-0.009-0.672-0.014-0.95-0.018l-2.964-3.166L34.23,44.39l1.424,0.104c0.045,0.003,0.088,0.001,0.131-0.006
			c0.27-0.04,0.486-0.262,0.507-0.546l0.072-0.989c-0.31-0.1-0.603-0.178-0.857-0.235c-0.006,0-0.012,0-0.018,0
			c-0.374,0-0.963-0.109-1.58-0.339c-0.329-0.123-0.665-0.28-0.982-0.475l-1.099-0.08l-0.013-0.014l-0.013,0.012l-2.217-0.162
			c-0.328-0.024-0.614,0.223-0.638,0.551L28.86,43.4c-0.024,0.328,0.223,0.614,0.551,0.638l1.798,0.131l6.088,6.503l0.297,0.317
			c-0.13,0.06-0.254,0.13-0.375,0.204c-1.062,0.652-1.772,1.821-1.772,3.159c0,0.457,0.083,0.894,0.234,1.298
			c0.287,0.769,0.822,1.416,1.508,1.845c0.57,0.357,1.243,0.564,1.965,0.564c1.006,0,4.783-0.022,8.368-0.472
			c0.046,0.095,0.094,0.19,0.144,0.282c1.097,2.031,3.245,3.412,5.715,3.412c1.315,0,2.538-0.392,3.561-1.065l0.636,1.759h-2.652
			c-0.197,0-0.357,0.16-0.357,0.357v1.474h10.379v-1.474C64.946,62.132,64.786,61.972,64.588,61.972z M40.685,54.394
			c0,0.01-0.001,0.02-0.002,0.031c-0.016,0.621-0.504,1.124-1.119,1.164c-0.026,0.002-0.052,0.004-0.078,0.004
			c-0.043,0-0.085-0.002-0.126-0.007c-0.603-0.063-1.072-0.573-1.072-1.192c0-0.662,0.536-1.198,1.199-1.198
			c0.15,0,0.294,0.029,0.426,0.079l-0.749,0.826c-0.162,0.178-0.148,0.454,0.03,0.616c0.084,0.075,0.188,0.113,0.293,0.113
			c0.119,0,0.237-0.048,0.323-0.143l0.469-0.518l0.28-0.308C40.639,54.021,40.685,54.202,40.685,54.394z M39.487,57.204
			c-0.545,0-1.052-0.158-1.483-0.427c-0.457-0.285-0.825-0.697-1.057-1.188c-0.123-0.26-0.207-0.542-0.244-0.839
			c-0.015-0.117-0.025-0.235-0.025-0.356c0-1.551,1.258-2.809,2.809-2.809c0.247,0,0.485,0.035,0.713,0.095
			c0.236,0.062,0.459,0.152,0.667,0.269c0.054,0.031,0.108,0.063,0.16,0.097l-0.229,0.253l-0.015,0.017
			c-0.275-0.171-0.585-0.289-0.918-0.341c-0.123-0.019-0.249-0.032-0.377-0.032c-1.354,0-2.452,1.098-2.452,2.452
			c0,0.021,0.003,0.04,0.003,0.061c0.015,0.604,0.247,1.152,0.623,1.572c0.179,0.2,0.389,0.371,0.624,0.503
			c0.355,0.2,0.765,0.316,1.202,0.316c1.354,0,2.452-1.097,2.452-2.452c0-0.323-0.064-0.631-0.178-0.914
			c-0.084-0.209-0.197-0.403-0.332-0.579l0.244-0.27c0.148,0.183,0.271,0.385,0.37,0.601c0.161,0.354,0.254,0.747,0.254,1.162
			C42.296,55.946,41.038,57.204,39.487,57.204z M56.254,58.311c-0.783,0.639-1.783,1.023-2.873,1.023
			c-1.478,0-2.79-0.705-3.621-1.796c-0.066-0.087-0.129-0.177-0.19-0.269c-0.466-0.714-0.738-1.566-0.738-2.483
			c0-1.266,0.518-2.411,1.352-3.235c0.089-0.087,0.181-0.171,0.277-0.252c0.779-0.653,1.78-1.049,2.874-1.06
			c0.015,0,0.03-0.001,0.045-0.001c0.982,0,1.89,0.312,2.633,0.841c1.158,0.824,1.915,2.177,1.915,3.707
			c0,0.404-0.053,0.796-0.152,1.169C57.527,56.894,56.985,57.714,56.254,58.311z"/>
		<path d="M53.546,50.821c-0.055-0.002-0.11-0.004-0.165-0.004c-0.81,0-1.563,0.243-2.191,0.66
			c-0.109,0.072-0.214,0.149-0.314,0.231c-0.893,0.728-1.463,1.836-1.463,3.077c0,0.884,0.289,1.7,0.778,2.36
			c0.067,0.09,0.138,0.178,0.212,0.262c0.727,0.826,1.792,1.347,2.979,1.347c1.025,0,1.958-0.388,2.663-1.026
			c0.802-0.726,1.306-1.776,1.306-2.943c0-0.004,0-0.009,0-0.013c-0.003-0.956-0.344-1.832-0.91-2.516
			C55.744,51.417,54.71,50.869,53.546,50.821z M53.381,56.727c-0.17,0-0.334-0.024-0.491-0.065
			c-0.146-0.038-0.287-0.092-0.417-0.161c-0.614-0.326-1.033-0.971-1.033-1.715c0-1.072,0.869-1.94,1.94-1.94
			c0.165,0,0.324,0.023,0.477,0.062c0.186,0.047,0.361,0.121,0.521,0.217c0.143,0.086,0.275,0.189,0.391,0.309
			c0.341,0.35,0.551,0.827,0.551,1.353c0,0.225-0.04,0.439-0.11,0.64C54.946,56.183,54.228,56.727,53.381,56.727z"/>
		<path d="M43.81,39.937c0.688,0.519,1.518,0.929,2.466,1.16l-0.339,0.3c-0.231,0.205-0.253,0.558-0.048,0.789
			c0.204,0.231,0.558,0.253,0.789,0.048l1.06-0.938c0.088,0.003,0.177,0.005,0.266,0.005c0.008,0,0.016,0,0.023,0
			c0.084,0,0.167-0.002,0.249-0.004c0.581-0.016,1.052-0.446,1.142-0.999c-0.129,0.036-0.264,0.055-0.404,0.055
			c-0.047,0-0.093-0.002-0.139-0.007c-0.02-0.002-0.039-0.004-0.059-0.006c-0.51-0.048-0.997-0.116-1.459-0.201
			c-2.429-0.447-4.208-1.357-5.471-2.295C42.375,38.596,43,39.33,43.81,39.937z"/>
		<circle cx="45.36" cy="29.55" r="3.353"/>
		<path d="M32.946,41.558c0.025,0.017,0.051,0.033,0.077,0.05c0.208,0.132,0.426,0.247,0.646,0.346
			c0.722,0.324,1.459,0.474,1.868,0.461c0.259,0.058,0.543,0.134,0.838,0.226c0.099,0.031,0.2,0.064,0.301,0.099
			c0.585,0.204,1.2,0.48,1.758,0.855c0.714,0.474,1.339,1.079,1.802,1.895c0.46,0.819,0.783,1.872,0.786,3.361
			c0,0.115-0.002,0.233-0.006,0.356c-0.007,0.204,0.021,0.402,0.075,0.588c0.062,0.211,0.16,0.407,0.288,0.58
			c0.04,0.055,0.083,0.107,0.129,0.157c0.049,0.053,0.102,0.104,0.157,0.151c0.123,0.106,0.26,0.196,0.409,0.267
			c0.167,0.08,0.348,0.136,0.538,0.164c0.067,0.01,0.134,0.016,0.203,0.018c0.021,0.001,0.043,0.001,0.064,0.001
			c0.399,0,0.77-0.128,1.075-0.344c0.117-0.083,0.224-0.178,0.319-0.285c0.277-0.313,0.452-0.72,0.467-1.17
			c0.005-0.162,0.008-0.322,0.008-0.482c0.001-0.385-0.017-0.758-0.049-1.121c-0.167-1.881-0.762-3.472-1.624-4.723
			c-0.767-1.121-1.722-1.965-2.689-2.588c-0.922-0.593-1.854-0.995-2.701-1.275c0.052-0.07,0.107-0.137,0.16-0.206
			c0.744-0.967,1.58-1.864,2.345-2.657c-1.148-1.307-1.594-2.46-1.678-2.7c-0.265-0.781,0.152-1.63,0.931-1.894
			c0.155-0.053,0.317-0.08,0.48-0.08c0.294,0,0.572,0.087,0.808,0.239c0.275,0.178,0.491,0.445,0.603,0.77
			c0.008,0.02,0.021,0.054,0.042,0.101c0.042,0.096,0.116,0.251,0.227,0.446c0.118,0.208,0.291,0.479,0.522,0.779
			c0.176,0.228,0.385,0.474,0.636,0.724c0.106,0.105,0.215,0.207,0.326,0.306c-0.028-0.07-0.054-0.14-0.08-0.209
			c-0.211-0.57-0.348-1.09-0.43-1.459c-0.041-0.185-0.068-0.332-0.085-0.429c-0.008-0.049-0.014-0.085-0.017-0.107
			s-0.003-0.023-0.003-0.023c-0.019-0.148-0.066-0.286-0.133-0.411c-0.064-0.313-0.2-0.598-0.422-0.833
			c-0.9-0.954-2.825-1.368-4.635,0.063c-2.432,1.947-3.672,3.457-5.101,6.345c-0.027,0.054-0.054,0.108-0.08,0.163
			C31.16,39.713,31.889,40.857,32.946,41.558z"/>
		<path d="M41.979,34.245c-0.281-0.351-0.489-0.673-0.636-0.931c-0.116-0.204-0.194-0.368-0.241-0.474
			c-0.023-0.053-0.038-0.091-0.047-0.113c-0.002-0.005-0.004-0.009-0.005-0.013c-0.104-0.304-0.319-0.539-0.585-0.675
			c-0.277-0.142-0.609-0.177-0.927-0.069c-0.624,0.212-0.957,0.889-0.745,1.513l0,0c0.036,0.103,0.44,1.252,1.605,2.584
			c0.143,0.164,0.296,0.33,0.463,0.498c0.183,0.185,0.382,0.37,0.597,0.554c1.367,1.175,3.383,2.289,6.188,2.764
			c0.403,0.068,0.82,0.125,1.257,0.165c0.038,0.003,0.075,0.005,0.112,0.005c0.045,0,0.09-0.003,0.134-0.008
			c0.097-0.011,0.19-0.034,0.279-0.067c0.365-0.136,0.65-0.446,0.744-0.839c0.013-0.055,0.024-0.11,0.029-0.168
			c0.037-0.393-0.122-0.757-0.395-1.001c-0.183-0.163-0.417-0.273-0.681-0.297c-2.742-0.262-4.553-1.145-5.773-2.09
			c-0.302-0.234-0.568-0.471-0.802-0.704C42.332,34.664,42.143,34.449,41.979,34.245z"/>
	</g>
</g>
<g id="Layer_2">
	<g>
		<path d="M45.92,42.595c0.362,0.066,0.755,0.165,1.11,0.313c0.477,0.192,0.858,0.45,1.09,0.736
			c0.229,0.293,0.386,0.603,0.396,1.259c0.004,0.721-0.262,1.885-1.14,3.52c-0.363,0.678-0.221,1.49,0.295,2.008
			c0.116,0.117,0.251,0.219,0.404,0.301c0.256,0.137,0.532,0.202,0.803,0.202c0.113,0,0.225-0.015,0.336-0.037
			c0.482-0.097,0.92-0.397,1.17-0.864c1.044-1.956,1.54-3.621,1.544-5.129c0.01-1.355-0.453-2.567-1.172-3.426
			c-1.086-1.298-2.515-1.832-3.659-2.119c-0.053-0.013-0.104-0.024-0.156-0.036c-0.016-0.811,0.053-1.645,0.165-2.457
			c0.175,0.206,0.366,0.405,0.579,0.591c0.762,0.671,1.822,1.148,3.063,1.148c0.009,0,0.018,0,0.027,0
			c0.234,0,0.474-0.017,0.719-0.048c-0.404-0.782-0.723-1.497-0.974-2.147c-0.471-0.042-0.834-0.189-1.162-0.417
			c-0.771-0.191-1.438-0.432-1.995-0.678c-0.284-0.126-0.541-0.253-0.768-0.376c-0.315-0.17-0.592-0.34-0.837-0.503
			c-0.785-0.523-1.212-0.971-1.308-1.076c-0.503-0.56-0.457-1.425,0.102-1.928c0.251-0.226,0.575-0.35,0.912-0.35
			c0.018,0,0.036,0.002,0.054,0.003c0.363,0.015,0.709,0.173,0.954,0.442l0.051,0.051c0.073,0.07,0.156,0.143,0.247,0.217
			c0.15,0.123,0.371,0.29,0.659,0.472c0.133,0.084,0.28,0.171,0.442,0.259c0.015-1.102-0.497-2.158-1.414-2.387
			c-1.165-0.29-2.853,0.342-3.54,2.34c-0.929,2.753-1.128,4.544-0.775,7.575c0.116,0.596,0.311,1.046,0.559,1.386l-1.949,7.271
			c1.069,0.226,2.189,0.481,3.327,0.761L45.92,42.595z"/>
		<path d="M53.269,36.982c-0.073-0.251-0.229-0.456-0.43-0.593c-0.038,0-0.078,0.003-0.116,0.003h-0.007
			c-0.052,0-0.101-0.002-0.152-0.003c0.183,0.421,0.398,0.871,0.65,1.352C53.319,37.51,53.346,37.244,53.269,36.982z"/>
		<path d="M56.381,43.414c-0.33-0.648-0.724-1.304-1.191-1.965c-0.905-1.284-1.603-2.43-2.143-3.447
			c-0.308-0.582-0.565-1.121-0.777-1.618c-0.262-0.008-0.515-0.023-0.763-0.043c-0.26-0.021-0.515-0.048-0.759-0.081
			c0.02,0.053,0.041,0.107,0.062,0.161c0.25,0.636,0.566,1.333,0.964,2.093c0.579,1.106,1.329,2.345,2.301,3.723
			c1.242,1.763,1.908,3.453,2.221,4.996c0.133-0.702,0.202-1.42,0.202-2.153C56.498,44.531,56.458,43.975,56.381,43.414z"/>
		<path d="M56.142,52.519c-0.086,0.329-0.18,0.629-0.273,0.896c-0.021,0.06-0.042,0.118-0.063,0.175
			c0.432,0.251,0.823,0.508,1.166,0.77c0.421-1.053,0.92-2.737,0.922-4.824c0-0.236-0.006-0.477-0.02-0.722
			c-0.37,1.266-0.876,2.306-1.336,3.08C56.404,52.118,56.272,52.325,56.142,52.519z"/>
		<path d="M51.279,32.418c0-0.258,0.021-0.439,0.039-0.547c0.009-0.054,0.017-0.09,0.021-0.109V31.76
			c0.119-0.357-0.075-0.744-0.433-0.862c-0.357-0.119-0.744,0.075-0.862,0.433c-0.022,0.066-0.13,0.426-0.13,1.087
			c0,0.26,0.017,0.566,0.061,0.918c0.456,0.115,0.929,0.2,1.418,0.255C51.306,33.098,51.279,32.708,51.279,32.418z"/>
		<path d="M52.942,52.512c-0.021-0.008-0.041-0.017-0.062-0.025c0.003,0.006,0.006,0.011,0.009,0.017L52.942,52.512z"/>
		<circle cx="48.142" cy="26.93" r="3.069"/>
		<path d="M28.118,59.801c-1.13,0-2.047,0.916-2.047,2.047s0.916,2.047,2.047,2.047c1.13,0,2.047-0.916,2.047-2.047
			c0-0.356-0.091-0.691-0.251-0.982l0.733-0.733l0.209-0.209c0.703,0.272,1.467,0.424,2.266,0.424
			c2.455,0,14.011,0.398,20.543-0.977l0.234,0.234l1.261,1.261c-0.16,0.292-0.251,0.626-0.251,0.982c0,1.13,0.916,2.047,2.047,2.047
			c1.13,0,2.047-0.916,2.047-2.047s-0.916-2.047-2.047-2.047c-0.13,0-0.256,0.013-0.379,0.036l-0.766-0.766l-0.215-0.215
			c1.6-0.541,2.598-1.267,2.598-2.239c0-0.617-0.402-1.229-1.105-1.827c-0.071-0.06-0.144-0.12-0.22-0.18
			c-0.333-0.26-0.722-0.518-1.158-0.771c-0.078-0.046-0.158-0.091-0.239-0.136c-0.051-0.028-0.102-0.057-0.154-0.085
			c-0.372,0.441-0.642,0.694-0.694,0.742c-0.017,0.015-0.035,0.029-0.052,0.043c-0.17,0.133-0.377,0.205-0.592,0.205
			c-0.052,0-0.104-0.004-0.155-0.013l-0.336-0.056l-0.96-0.16c-0.168,0.159-0.367,0.278-0.582,0.353
			c-0.172,0.061-0.354,0.094-0.54,0.094c-0.05,0-0.1-0.003-0.151-0.008c-0.04-0.004-0.08-0.008-0.12-0.015l-8.124-1.354
			l-0.683-0.114c-0.51-0.084-0.941-0.4-1.179-0.854l-1.35-0.225l-2.513-0.419c0.303,0.611,0.474,1.299,0.474,2.027
			c0,1.039-0.347,1.996-0.931,2.763c-0.081,0.106-0.165,0.209-0.255,0.307c-0.627,0.691-1.463,1.188-2.408,1.394
			c-0.101,0.022-0.202,0.041-0.305,0.056c-0.219,0.032-0.444,0.05-0.672,0.05c-2.524,0-4.571-2.046-4.571-4.571
			c0-1.775,1.012-3.312,2.49-4.069c0.165-0.868,0.926-1.525,1.842-1.525c0.797,0,1.477,0.498,1.748,1.199l5.597,0.932l1.118,0.186
			c0.307-0.319,0.737-0.506,1.182-0.506c0.09,0,0.182,0.007,0.271,0.023l0.996,0.166l5.239,0.873
			c-1.65-0.518-3.389-0.993-5.094-1.412c-1.137-0.28-2.258-0.534-3.328-0.761c-3.504-0.742-6.452-1.179-7.557-1.179
			c-3.466,0-6.276,2.81-6.276,6.276c0,2.024,0.959,3.823,2.447,4.971L29.1,59.234l-0.603,0.603
			C28.374,59.814,28.247,59.801,28.118,59.801z"/>
		<path d="M32.95,52.024c-0.742,0-1.381-0.432-1.686-1.056c-0.937,0.623-1.555,1.688-1.555,2.898c0,1.922,1.558,3.479,3.479,3.479
			c0.249,0,0.492-0.027,0.726-0.076c0.371-0.079,0.72-0.217,1.037-0.404c1.027-0.605,1.716-1.721,1.716-2.999
			c0-0.868-0.319-1.662-0.845-2.271l-1.438-0.24C34.041,51.764,33.526,52.024,32.95,52.024z"/>
		<path d="M31.653,50.744c0.226,0.491,0.721,0.832,1.297,0.832c0.337,0,0.645-0.117,0.89-0.312l-1.047-0.174
			c-0.317-0.053-0.57-0.257-0.701-0.525c-0.084-0.172-0.118-0.371-0.084-0.573c0.044-0.263,0.191-0.485,0.395-0.627
			c0.155-0.108,0.344-0.171,0.545-0.171c0.053,0,0.106,0.004,0.158,0.013l1.046,0.174c-0.254-0.397-0.697-0.661-1.203-0.661
			c-0.58,0-1.077,0.346-1.301,0.842c-0.081,0.179-0.127,0.377-0.127,0.586C31.522,50.361,31.57,50.562,31.653,50.744z"/>
		<path d="M55.26,33.45c0.224,0,0.436,0.055,0.623,0.151c-0.014-0.259-0.021-0.504-0.021-0.733c0-1.146,0.155-1.916,0.299-2.384
			c0.072-0.234,0.141-0.393,0.186-0.487c0.023-0.047,0.04-0.077,0.049-0.092v-0.001c0.216-0.309,0.141-0.734-0.168-0.95
			c-0.309-0.216-0.734-0.141-0.95,0.168c-0.081,0.112-0.784,1.208-0.781,3.747c0,0.215,0.005,0.44,0.016,0.676
			c0.174-0.022,0.349-0.047,0.526-0.075C55.112,33.456,55.186,33.45,55.26,33.45z"/>
		<path d="M43.79,50.538l-0.97-0.162c-0.512-0.085-1.004,0.126-1.302,0.508l-1.295-0.216l-4.826-0.804l-0.612-0.102l-0.488-0.081
			l-1.236-0.206c-0.371-0.062-0.723,0.189-0.785,0.561c-0.027,0.162,0.008,0.319,0.084,0.451c0.098,0.171,0.267,0.3,0.476,0.335v0
			l1.236,0.206l0.486,0.081l0.938,0.156l1.622,0.27l2.749,0.458l1.466,0.244c0.173,0.423,0.554,0.75,1.037,0.83l0.709,0.118
			l8.098,1.35c0.076,0.013,0.151,0.019,0.226,0.019c0.4,0,0.772-0.177,1.025-0.467l1.437,0.24c0.037,0.006,0.074,0.009,0.11,0.009
			c0.168,0,0.332-0.062,0.459-0.175c0.019-0.017,0.27-0.246,0.634-0.672c0.055-0.065,0.113-0.135,0.173-0.209
			c0.197-0.243,0.417-0.534,0.646-0.873c0.136-0.201,0.274-0.417,0.414-0.651c0.006-0.011,0.013-0.023,0.019-0.034
			c0.569-0.964,1.136-2.208,1.481-3.704c0.06-0.26,0.112-0.529,0.158-0.804c0.11-0.669,0.175-1.381,0.175-2.135
			c0-1.454-0.236-3.059-0.819-4.79c-0.581-1.726-0.947-3.197-1.167-4.444c-0.185,0.16-0.413,0.274-0.672,0.316
			c-0.214,0.035-0.428,0.065-0.641,0.092c0.236,1.283,0.613,2.764,1.187,4.471c0.308,0.915,0.505,1.781,0.62,2.601
			c0.04,0.282,0.071,0.56,0.091,0.831c0.024,0.315,0.036,0.623,0.036,0.923c0,1.048-0.137,2.002-0.354,2.861
			c-0.06,0.24-0.127,0.472-0.198,0.696c-0.303,0.947-0.695,1.759-1.089,2.423c-0.41,0.692-0.821,1.222-1.124,1.575
			c-0.009,0.011-0.017,0.019-0.026,0.03c-0.07,0.08-0.132,0.149-0.188,0.21c-0.015,0.016-0.031,0.034-0.045,0.049l-1.052-0.175
			c-0.055-0.159-0.14-0.306-0.248-0.434c-0.202-0.241-0.485-0.414-0.819-0.47l-0.833-0.139L43.79,50.538z"/>
		<path d="M52.154,36.107c0.096,0.004,0.194,0.005,0.293,0.007c0.09,0.002,0.178,0.004,0.269,0.004c0.003,0,0.005,0,0.007,0
			c0.568,0,1.166-0.033,1.793-0.102c0.09-0.01,0.181-0.02,0.273-0.032c0.212-0.027,0.426-0.057,0.644-0.093
			c0.269-0.044,0.498-0.183,0.66-0.377c0.098-0.117,0.172-0.255,0.214-0.404c0.042-0.149,0.055-0.309,0.028-0.472
			c-0.021-0.131-0.066-0.252-0.128-0.362c-0.077-0.135-0.18-0.252-0.303-0.342c-0.228-0.168-0.52-0.247-0.821-0.198
			c-0.188,0.031-0.372,0.056-0.554,0.079c-0.092,0.012-0.181,0.021-0.271,0.031c-0.54,0.059-1.053,0.088-1.534,0.088
			c-0.347,0-0.678-0.015-0.995-0.041c-0.095-0.008-0.189-0.015-0.281-0.025c-0.519-0.054-0.995-0.138-1.431-0.243
			c-0.097-0.023-0.192-0.047-0.285-0.072c-0.753-0.204-1.376-0.467-1.88-0.73c-0.031-0.016-0.063-0.032-0.093-0.049
			c-0.09-0.048-0.174-0.097-0.256-0.144c-0.4-0.235-0.703-0.458-0.908-0.626c-0.124-0.101-0.212-0.183-0.265-0.234
			c-0.026-0.026-0.045-0.044-0.054-0.053c-0.004-0.004-0.006-0.007-0.007-0.008c-0.254-0.279-0.621-0.396-0.969-0.344
			c-0.204,0.031-0.402,0.119-0.567,0.267c-0.448,0.403-0.485,1.093-0.082,1.541c0.043,0.047,0.358,0.39,0.96,0.826
			c0.299,0.217,0.668,0.457,1.111,0.696c0.213,0.115,0.444,0.229,0.691,0.34c0.436,0.196,0.923,0.383,1.464,0.543
			c0.45,0.134,0.937,0.249,1.46,0.339c0.099,0.017,0.2,0.032,0.301,0.047C51.116,36.037,51.621,36.086,52.154,36.107z"/>
	</g>
</g>
</svg>
