<?xml version="1.0" encoding="utf-8"?>
<!-- Generator: Adobe Illustrator 17.0.0, SVG Export Plug-In . SVG Version: 6.00 Build 0)  -->
<!DOCTYPE svg PUBLIC "-//W3C//DTD SVG 1.1//EN" "http://www.w3.org/Graphics/SVG/1.1/DTD/svg11.dtd">
<svg version="1.1" id="Layer_1" xmlns="http://www.w3.org/2000/svg" xmlns:xlink="http://www.w3.org/1999/xlink" x="0px" y="0px"
	 width="90px" height="90px" viewBox="0 0 90 90" style="enable-background:new 0 0 90 90;" xml:space="preserve">
<g>
	<path d="M34.088,54.985c-3.085-0.584-5.098-1.542-5.098-2.626c0-1.083,2.012-2.042,5.098-2.626
		c0.016-0.003,0.032,0.007,0.036,0.023c0.004,0.016-0.006,0.033-0.022,0.037c-2.317,0.619-3.786,1.539-3.786,2.566
		c0,1.027,1.469,1.947,3.786,2.566c0.016,0.004,0.026,0.021,0.022,0.037C34.12,54.977,34.104,54.988,34.088,54.985z M34.738,50.826
		c-1.21,0.404-1.949,0.942-1.949,1.533c0,0.577,0.705,1.104,1.866,1.505c0.027,0.01,0.042,0.039,0.034,0.066
		c-0.008,0.028-0.036,0.045-0.065,0.038c-1.689-0.397-2.75-0.971-2.75-1.609c0-0.649,1.097-1.231,2.836-1.629
		c0.026-0.006,0.052,0.01,0.059,0.035C34.777,50.79,34.763,50.817,34.738,50.826z M55.912,49.733
		c3.085,0.584,5.098,1.542,5.098,2.626c0,1.084-2.012,2.042-5.098,2.626c-0.016,0.003-0.032-0.007-0.036-0.023
		c-0.004-0.016,0.006-0.033,0.022-0.037c2.317-0.619,3.786-1.539,3.786-2.566c0-1.027-1.469-1.947-3.786-2.566
		c-0.016-0.004-0.026-0.02-0.022-0.037C55.879,49.74,55.895,49.73,55.912,49.733z M54.852,50.699
		c-0.016-0.005-0.025-0.021-0.021-0.037c0.004-0.016,0.02-0.026,0.036-0.023c1.982,0.397,3.258,1.019,3.258,1.719
		c0,0.7-1.277,1.322-3.258,1.719c-0.016,0.003-0.032-0.007-0.036-0.023c-0.004-0.016,0.006-0.032,0.022-0.037
		c1.451-0.415,2.359-1.005,2.359-1.659C57.211,51.704,56.304,51.114,54.852,50.699z"/>
	<path d="M32.856,40.446c-0.056,0.311,0.045,0.66,0.283,0.944l0.081,0.09l0.093,0.096c0.058,0.058,0.119,0.112,0.178,0.165
		c0.118,0.104,0.236,0.202,0.352,0.295c0.231,0.187,0.45,0.362,0.639,0.538c0.188,0.176,0.347,0.354,0.448,0.537
		c0.105,0.182,0.155,0.367,0.156,0.544c0.001,0.176-0.042,0.341-0.105,0.484c-0.013,0.036-0.032,0.07-0.048,0.103
		c-0.017,0.033-0.032,0.066-0.05,0.096c-0.039,0.059-0.069,0.117-0.104,0.167c-0.035,0.05-0.067,0.094-0.095,0.133
		c-0.03,0.038-0.056,0.07-0.076,0.097c-0.042,0.052-0.065,0.08-0.065,0.08s0.032-0.023,0.093-0.067
		c0.031-0.022,0.068-0.049,0.112-0.081c0.041-0.034,0.088-0.073,0.141-0.117c0.052-0.044,0.104-0.096,0.163-0.152
		c0.028-0.029,0.054-0.06,0.083-0.092c0.028-0.032,0.06-0.065,0.085-0.102c0.115-0.141,0.216-0.314,0.288-0.514
		c0.075-0.2,0.1-0.431,0.066-0.673c-0.006-0.061-0.023-0.121-0.036-0.184c-0.019-0.06-0.035-0.124-0.06-0.185
		c-0.045-0.124-0.108-0.247-0.179-0.368c-0.144-0.242-0.336-0.474-0.54-0.689c-0.201-0.214-0.426-0.42-0.572-0.595
		c-0.127-0.158-0.196-0.321-0.209-0.506c-0.007-0.186,0.041-0.39,0.131-0.594c0.091-0.204,0.224-0.402,0.371-0.587
		c0.15-0.183,0.314-0.353,0.48-0.503c0.335-0.299,0.661-0.528,0.891-0.685c0.232-0.157,0.375-0.241,0.375-0.241
		s-0.164,0.062-0.441,0.186c-0.277,0.124-0.665,0.309-1.105,0.563c-0.22,0.126-0.458,0.267-0.695,0.432
		c-0.239,0.164-0.479,0.352-0.691,0.576C33.089,39.864,32.912,40.134,32.856,40.446z"/>
	<path d="M29.65,41.492l0.126,0.13c0.079,0.079,0.162,0.153,0.242,0.226c0.162,0.144,0.323,0.279,0.482,0.41
		c0.316,0.262,0.617,0.508,0.875,0.758c0.254,0.25,0.471,0.502,0.603,0.761c0.137,0.258,0.201,0.519,0.194,0.765
		c-0.01,0.245-0.07,0.474-0.162,0.671c-0.019,0.051-0.047,0.097-0.071,0.143c-0.026,0.045-0.047,0.09-0.072,0.132
		c-0.056,0.082-0.1,0.161-0.15,0.229c-0.051,0.068-0.096,0.129-0.135,0.182c-0.041,0.052-0.08,0.096-0.109,0.132
		c-0.06,0.072-0.092,0.11-0.092,0.11s0.044-0.033,0.126-0.094c0.04-0.031,0.093-0.068,0.152-0.114
		c0.055-0.047,0.119-0.102,0.19-0.163c0.07-0.062,0.14-0.134,0.219-0.212c0.039-0.04,0.074-0.083,0.112-0.127
		c0.038-0.044,0.08-0.09,0.114-0.14c0.153-0.196,0.292-0.433,0.381-0.708c0.095-0.274,0.123-0.589,0.069-0.918
		c-0.009-0.083-0.035-0.165-0.055-0.25c-0.028-0.081-0.05-0.168-0.087-0.25c-0.066-0.169-0.153-0.335-0.256-0.499
		c-0.203-0.328-0.47-0.644-0.755-0.938c-0.281-0.294-0.594-0.578-0.803-0.828c-0.186-0.231-0.285-0.474-0.295-0.743
		c-0.002-0.268,0.072-0.559,0.212-0.841c0.137-0.284,0.33-0.558,0.543-0.81c0.216-0.252,0.449-0.484,0.686-0.687
		c0.471-0.411,0.929-0.722,1.252-0.937c0.325-0.214,0.525-0.327,0.525-0.327s-0.226,0.088-0.604,0.263
		c-0.379,0.174-0.908,0.436-1.508,0.789c-0.297,0.178-0.62,0.376-0.938,0.606c-0.32,0.229-0.643,0.489-0.924,0.798
		c-0.273,0.31-0.509,0.676-0.58,1.096c-0.071,0.418,0.066,0.883,0.384,1.264L29.65,41.492z"/>
	<path d="M57.491,40.446c-0.056,0.311,0.045,0.66,0.283,0.944l0.081,0.09l0.093,0.096c0.058,0.058,0.119,0.112,0.178,0.165
		c0.119,0.104,0.236,0.202,0.352,0.295c0.231,0.187,0.45,0.362,0.639,0.538c0.188,0.176,0.347,0.354,0.449,0.537
		c0.105,0.182,0.155,0.367,0.156,0.544c0.001,0.176-0.042,0.341-0.105,0.484c-0.013,0.036-0.032,0.07-0.049,0.103
		c-0.017,0.033-0.032,0.066-0.05,0.096c-0.039,0.059-0.069,0.117-0.104,0.167c-0.036,0.05-0.067,0.094-0.095,0.133
		c-0.03,0.038-0.056,0.07-0.076,0.097c-0.043,0.052-0.065,0.08-0.065,0.08s0.032-0.023,0.093-0.067
		c0.031-0.022,0.068-0.049,0.112-0.081c0.041-0.034,0.088-0.073,0.141-0.117c0.052-0.044,0.105-0.096,0.163-0.152
		c0.029-0.029,0.054-0.06,0.083-0.092c0.028-0.032,0.059-0.065,0.085-0.102c0.115-0.141,0.216-0.314,0.288-0.514
		c0.075-0.2,0.1-0.431,0.066-0.673c-0.006-0.061-0.023-0.121-0.036-0.184c-0.019-0.06-0.035-0.124-0.06-0.185
		c-0.045-0.124-0.108-0.247-0.18-0.368c-0.144-0.242-0.336-0.474-0.54-0.689c-0.201-0.214-0.426-0.42-0.572-0.595
		c-0.127-0.158-0.196-0.321-0.208-0.506c-0.007-0.186,0.041-0.39,0.131-0.594c0.091-0.204,0.224-0.402,0.371-0.587
		c0.15-0.183,0.314-0.353,0.481-0.503c0.335-0.299,0.661-0.528,0.891-0.685c0.232-0.157,0.375-0.241,0.375-0.241
		s-0.164,0.062-0.441,0.186c-0.277,0.124-0.665,0.309-1.105,0.563c-0.22,0.126-0.458,0.267-0.695,0.432
		c-0.239,0.164-0.478,0.352-0.69,0.576C57.724,39.864,57.547,40.134,57.491,40.446z"/>
	<path d="M54.285,41.492l0.126,0.13c0.079,0.079,0.161,0.153,0.242,0.226c0.162,0.144,0.323,0.279,0.482,0.41
		c0.317,0.262,0.617,0.508,0.874,0.758c0.254,0.25,0.471,0.502,0.603,0.761c0.137,0.258,0.201,0.519,0.194,0.765
		c-0.009,0.245-0.069,0.474-0.162,0.671c-0.019,0.051-0.047,0.097-0.071,0.143c-0.025,0.045-0.047,0.09-0.072,0.132
		c-0.056,0.082-0.1,0.161-0.15,0.229c-0.051,0.068-0.096,0.129-0.135,0.182c-0.041,0.052-0.079,0.096-0.109,0.132
		c-0.06,0.072-0.092,0.11-0.092,0.11s0.044-0.033,0.126-0.094c0.041-0.031,0.093-0.068,0.151-0.114
		c0.055-0.047,0.119-0.102,0.19-0.163c0.07-0.062,0.141-0.134,0.22-0.212c0.039-0.04,0.074-0.083,0.112-0.127
		c0.038-0.044,0.08-0.09,0.114-0.14c0.153-0.196,0.292-0.433,0.381-0.708c0.095-0.274,0.123-0.589,0.069-0.918
		c-0.009-0.083-0.035-0.165-0.055-0.25c-0.028-0.081-0.05-0.168-0.087-0.25c-0.066-0.169-0.153-0.335-0.256-0.499
		c-0.203-0.328-0.47-0.644-0.755-0.938c-0.281-0.294-0.594-0.578-0.803-0.828c-0.186-0.231-0.285-0.474-0.296-0.743
		c-0.002-0.268,0.073-0.559,0.212-0.841c0.137-0.284,0.33-0.558,0.543-0.81c0.216-0.252,0.449-0.484,0.686-0.687
		c0.471-0.411,0.929-0.722,1.252-0.937c0.325-0.214,0.525-0.327,0.525-0.327s-0.226,0.088-0.604,0.263
		c-0.379,0.174-0.908,0.436-1.508,0.789c-0.297,0.178-0.62,0.376-0.938,0.606c-0.32,0.229-0.642,0.489-0.924,0.798
		c-0.273,0.31-0.509,0.676-0.58,1.096c-0.071,0.418,0.066,0.883,0.384,1.264L54.285,41.492z"/>
	<path d="M53.048,46.868c0.349,0.282,0.665,0.634,0.901,1.069c5.447,0.876,9.119,2.528,9.119,4.421c0,2.81-8.089,5.088-18.067,5.088
		c-9.978,0-18.068-2.278-18.068-5.088c0-1.893,3.672-3.545,9.119-4.421c0.235-0.435,0.551-0.787,0.901-1.069
		c-7.654,0.891-13.04,3.014-13.04,5.491c0,3.28,9.441,5.939,21.087,5.939s21.087-2.659,21.087-5.939
		C66.087,49.882,60.701,47.759,53.048,46.868z"/>
	<path d="M34.102,54.924c-2.317-0.619-3.786-1.539-3.786-2.566c0-1.027,1.469-1.947,3.786-2.566c0.016-0.004,0.026-0.02,0.022-0.037
		c-0.004-0.016-0.02-0.027-0.036-0.023c-3.085,0.584-5.098,1.543-5.098,2.626c0,1.084,2.012,2.042,5.098,2.626
		c0.016,0.003,0.032-0.007,0.036-0.023C34.127,54.945,34.118,54.929,34.102,54.924z"/>
	<path d="M55.898,49.793c2.317,0.619,3.786,1.539,3.786,2.566c0,1.027-1.469,1.947-3.786,2.566
		c-0.016,0.004-0.026,0.021-0.022,0.037c0.004,0.016,0.02,0.027,0.036,0.023c3.085-0.584,5.098-1.542,5.098-2.626
		c0-1.083-2.013-2.042-5.098-2.626c-0.016-0.003-0.032,0.007-0.036,0.023C55.872,49.772,55.882,49.789,55.898,49.793z"/>
	<path d="M34.711,50.729c-1.739,0.398-2.836,0.98-2.836,1.629c0,0.638,1.061,1.212,2.75,1.609c0.028,0.007,0.057-0.01,0.065-0.038
		c0.008-0.028-0.007-0.057-0.034-0.066c-1.161-0.401-1.866-0.928-1.866-1.505c0-0.591,0.738-1.129,1.949-1.533
		c0.025-0.009,0.04-0.035,0.032-0.061C34.763,50.739,34.737,50.724,34.711,50.729z"/>
	<path d="M54.852,54.018c-0.016,0.005-0.025,0.021-0.022,0.037c0.004,0.016,0.02,0.026,0.036,0.023
		c1.982-0.397,3.258-1.019,3.258-1.719c0-0.7-1.277-1.323-3.258-1.719c-0.016-0.003-0.032,0.007-0.036,0.023
		c-0.004,0.016,0.006,0.032,0.021,0.037c1.451,0.415,2.359,1.005,2.359,1.66C57.211,53.013,56.304,53.603,54.852,54.018z"/>
	<path d="M42.808,46.237c-1.189,0.81-2.799,0.73-3.993,1.197c-1.626,0.637-1.665,1.619-1.715,1.766
		c-0.124,0.365-0.363,0.895-0.417,3.26c-0.007,0.314,0,0.787,0.937,1.199c2.779,1.217,7.365,1.228,7.38,1.228
		c0.015,0,4.399-0.011,7.381-1.228c0.937-0.412,0.944-0.885,0.936-1.199c-0.054-2.364-0.293-2.895-0.417-3.26
		c-0.05-0.146-0.089-1.129-1.715-1.766c-1.194-0.467-2.804-0.387-3.993-1.197c-0.047-0.148-0.079-0.304-0.094-0.472
		c-0.02-0.224-0.037-0.448-0.053-0.672c0.816-0.799,1.431-1.947,1.694-2.895c1.179-0.669,1.977-1.935,1.977-3.385
		c0-0.973-0.36-1.863-0.953-2.545c-0.224-1.364-0.725-2.397-1.492-3.07c-0.38-0.334-0.819-0.576-1.311-0.723
		c-0.694-0.486-1.537-0.773-2.447-0.773c-2.056,0-3.777,1.459-4.183,3.396c-0.921,1.331-1.256,2.925-0.923,4.534
		c0.3,1.445,1.101,2.644,2.01,3.02c0.314,0.75,0.856,1.678,1.54,2.377c-0.017,0.246-0.035,0.491-0.057,0.736
		C42.886,45.933,42.855,46.089,42.808,46.237z M50.079,38.813c0,1.017-0.469,1.925-1.202,2.522c0.003-0.059,0.005-0.119,0.005-0.179
		c0-2.143-1.738-3.881-3.881-3.881c-0.02,0-0.04,0.001-0.061,0.002c1.034-0.377,2.265-0.578,3.638-0.578
		c0.239,0,0.485,0.007,0.734,0.019C49.79,37.285,50.079,38.016,50.079,38.813z M44.515,32.34c0.135,0,0.269,0.008,0.4,0.022
		c-1.204,0.175-2.389,0.71-3.207,1.304C42.375,32.857,43.386,32.34,44.515,32.34z M41.652,38.984
		c-0.525,0.827-0.733,1.756-0.609,2.617c-0.423-0.455-0.82-1.181-1.009-2.097c-0.38-1.836,0.218-3.654,1.642-4.988
		c0.815-0.764,2.508-1.575,4.04-1.575c1.784,0,2.942,1.081,3.365,3.131c-0.17-0.005-0.338-0.008-0.502-0.008
		C45.354,36.062,42.829,37.127,41.652,38.984z"/>
	<ellipse style="fill:#FFFFFF;" cx="44.908" cy="45.381" rx="2.969" ry="0.95"/>
	<circle cx="45.033" cy="41.772" r="3.891"/>
</g>
</svg>
