<?xml version="1.0" encoding="utf-8"?>
<!-- Generator: Adobe Illustrator 17.0.0, SVG Export Plug-In . SVG Version: 6.00 Build 0)  -->
<!DOCTYPE svg PUBLIC "-//W3C//DTD SVG 1.1//EN" "http://www.w3.org/Graphics/SVG/1.1/DTD/svg11.dtd">
<svg version="1.1" id="Layer_1" xmlns="http://www.w3.org/2000/svg" xmlns:xlink="http://www.w3.org/1999/xlink" x="0px" y="0px"
	 width="90px" height="90px" viewBox="0 0 90 90" style="enable-background:new 0 0 90 90;" xml:space="preserve">
<g>
	<path d="M27.521,60.04c2.097,0,3.794-1.704,3.794-3.801c0-2.096-1.698-3.796-3.794-3.796c-2.097,0-3.802,1.699-3.802,3.796
		C23.72,58.336,25.423,60.04,27.521,60.04z"/>
	<path d="M58.028,38.494c-0.124-0.083-0.255-0.151-0.387-0.208l-13.103-3.911c-0.053-0.019-0.107-0.035-0.163-0.049l-0.02-0.006l0,0
		c-0.151-0.037-0.307-0.059-0.47-0.059c-1.008,0-1.994,1.18-1.994,2.02l-0.015,9.207l-9.181,8.598
		c-1.195,1.511-0.565,3.319-0.565,3.319c0.658,2.002,2.909,2.072,2.909,2.072l16.382,0.005c0.874,0,1.583-0.714,1.583-1.6
		c0-0.888-0.71-1.601-1.583-1.601l-11.309-0.019l4.763-4.792c0.681-0.707,1.027-1.501,1.027-2.534c0-0.93-0.074-9.061-0.084-10.134
		l10.263,3.12c0.848,0.367,1.858,0.095,2.417-0.679C59.131,40.352,58.92,39.118,58.028,38.494z"/>
	<path d="M57.064,37.679l4.173-4.182c0.72-0.58,0.948-1.601,0.523-2.455c-0.496-0.976-1.685-1.363-2.652-0.863
		c-0.131,0.071-0.253,0.156-0.364,0.246L52.779,36.4L57.064,37.679z"/>
	<polygon points="48.978,40.207 46.478,42.711 46.478,48.289 53.248,41.505 	"/>
	<path d="M57.303,42.084c-4.958,0-8.978,4.019-8.978,8.978c0,1.737,0.495,3.358,1.349,4.732l1.978,0.003
		c1.12,0,2.029,0.914,2.029,2.051c0,0.465-0.154,0.891-0.411,1.234c1.213,0.611,2.582,0.957,4.033,0.957
		c4.958,0,8.977-4.019,8.977-8.977S62.261,42.084,57.303,42.084z"/>
</g>
</svg>
