<?xml version="1.0" encoding="utf-8"?>
<!-- Generator: Adobe Illustrator 17.0.0, SVG Export Plug-In . SVG Version: 6.00 Build 0)  -->
<!DOCTYPE svg PUBLIC "-//W3C//DTD SVG 1.1//EN" "http://www.w3.org/Graphics/SVG/1.1/DTD/svg11.dtd">
<svg version="1.1" id="Layer_1" xmlns="http://www.w3.org/2000/svg" xmlns:xlink="http://www.w3.org/1999/xlink" x="0px" y="0px"
	 width="90px" height="90px" viewBox="0 0 90 90" style="enable-background:new 0 0 90 90;" xml:space="preserve">
<g>
	<path d="M26.699,37.522h-1.398c-0.71,0-1.284,0.503-1.284,1.124v12.707c0,0.621,0.574,1.124,1.284,1.124h1.398
		c0.709,0,1.284-0.503,1.284-1.124V38.646C27.983,38.025,27.408,37.522,26.699,37.522z"/>
	<path d="M59.111,34.596h-1.905c-0.708,0-1.281,0.506-1.281,1.124v6.149H33.708V35.72c0-0.619-0.576-1.124-1.285-1.124h-1.397
		c-0.709,0-1.285,0.506-1.285,1.124v18.559c0,0.622,0.576,1.126,1.285,1.126h1.397c0.709,0,1.285-0.503,1.285-1.126v-6.147h22.217
		v6.147c0,0.622,0.573,1.126,1.281,1.126h1.905c0.708,0,1.281-0.503,1.281-1.126V35.72C60.392,35.101,59.819,34.596,59.111,34.596z"
		/>
	<path d="M64.699,37.522h-1.398c-0.71,0-1.284,0.503-1.284,1.124v12.707c0,0.621,0.574,1.124,1.284,1.124h1.398
		c0.709,0,1.284-0.503,1.284-1.124V38.646C65.983,38.025,65.408,37.522,64.699,37.522z"/>
</g>
</svg>
