<?xml version="1.0" encoding="utf-8"?>
<!-- Generator: Adobe Illustrator 17.0.0, SVG Export Plug-In . SVG Version: 6.00 Build 0)  -->
<!DOCTYPE svg PUBLIC "-//W3C//DTD SVG 1.1//EN" "http://www.w3.org/Graphics/SVG/1.1/DTD/svg11.dtd">
<svg version="1.1" id="Layer_1" xmlns="http://www.w3.org/2000/svg" xmlns:xlink="http://www.w3.org/1999/xlink" x="0px" y="0px"
	 width="90px" height="90px" viewBox="0 0 90 90" style="enable-background:new 0 0 90 90;" xml:space="preserve">
<g>
	<g>
		<g>
			<path d="M44.886,42.391c-2.894-5.307-11.045-3.31-10.45,3.479c0,1.034,0.284,2.086,0.758,3.121h1.251l1.105-2.999
				c0.117-0.315,0.422-0.519,0.76-0.501c0.337,0.018,0.622,0.252,0.705,0.578l0.579,2.283l0.156-0.482
				c0.095-0.293,0.355-0.502,0.663-0.529c0.306-0.026,0.6,0.132,0.745,0.404l0.202,0.379l1.701-4.21
				c0.131-0.322,0.46-0.518,0.804-0.475c0.346,0.042,0.617,0.309,0.668,0.652l0.908,6.256l0.744-2.355
				c0.101-0.317,0.394-0.533,0.726-0.536c0.002,0,0.005,0,0.007,0c0.329,0,0.622,0.209,0.728,0.522l0.484,1.439l1.503-4.733
				c0.098-0.313,0.385-0.528,0.712-0.536c0.325-0.007,0.624,0.192,0.739,0.499l1.048,2.809h2.994
				c0.134-0.531,0.208-1.06,0.208-1.586C55.931,39.08,47.759,37.083,44.886,42.391z"/>
			<path d="M50.883,48.491l-0.457-1.223l-1.538,4.849c-0.1,0.317-0.391,0.533-0.724,0.536c-0.331,0.013-0.63-0.208-0.735-0.523
				l-0.485-1.436l-1.047,3.312c-0.102,0.321-0.4,0.536-0.732,0.536c-0.02,0-0.041-0.001-0.062-0.003
				c-0.358-0.029-0.647-0.301-0.698-0.655l-0.981-6.764l-1.252,3.102c-0.112,0.276-0.374,0.463-0.673,0.478
				c-0.296,0.016-0.577-0.142-0.717-0.405l-0.124-0.233l-0.417,1.294c-0.106,0.326-0.412,0.544-0.757,0.531
				c-0.341-0.011-0.635-0.247-0.718-0.578l-0.627-2.467l-0.434,1.181c-0.113,0.301-0.4,0.502-0.721,0.502h-0.944
				c2.938,4.632,8.89,8.573,8.89,8.573s7.265-4.848,9.656-10.11h-2.982C51.281,48.99,50.995,48.792,50.883,48.491z"/>
		</g>
	</g>
	<g>
		<path d="M55.273,41.113c0,0,1.099-1.209,2.841-0.913c0.998,0.06,2.165,1.218,2.165,1.218s0.135-1.167,0.473-2.57
			c0.338-1.404,1.15-2.165,0.676-4.025c-1.429,0.617-4.109,0.161-4.532-0.271c-0.423-0.431,0.042-2.672,0.406-3.111
			c0.363-0.44,3.518-0.482,4.363-0.372c1.404,0.161,1.542,1.253,1.929,2.131c0.972,3.23,1.91,4.093,2.706,7.34
			c0.397,2.207-0.271,3.856-0.271,3.856s0.254,0.668,0.068,1.184c-0.186,0.516-3.822,1.725-3.822,1.725s-1.74,0.51-4.421,0.679
			c-2.681,0.17-4.424-1.592-5.084-1.423"/>
	</g>
	<g>
		<path d="M34.653,40.997c0,0-1.092-1.209-2.822-0.913c-0.991,0.06-2.15,1.218-2.15,1.218s-0.134-1.167-0.47-2.57
			c-0.336-1.404-1.142-2.165-0.672-4.025c1.42,0.617,4.082,0.161,4.502-0.271c0.42-0.431-0.042-2.672-0.403-3.111
			c-0.361-0.44-3.494-0.482-4.334-0.372c-1.394,0.161-1.531,1.253-1.916,2.131c-0.966,3.23-1.898,4.093-2.688,7.34
			c-0.395,2.207,0.269,3.856,0.269,3.856s-0.252,0.668-0.068,1.184c0.185,0.516,3.797,1.725,3.797,1.725s1.729,0.51,4.391,0.679
			c2.663,0.17,4.395-1.592,5.05-1.423"/>
	</g>
</g>
</svg>
