<?xml version="1.0" encoding="utf-8"?>
<!-- Generator: Adobe Illustrator 17.0.0, SVG Export Plug-In . SVG Version: 6.00 Build 0)  -->
<!DOCTYPE svg PUBLIC "-//W3C//DTD SVG 1.1//EN" "http://www.w3.org/Graphics/SVG/1.1/DTD/svg11.dtd">
<svg version="1.1" id="Layer_1" xmlns="http://www.w3.org/2000/svg" xmlns:xlink="http://www.w3.org/1999/xlink" x="0px" y="0px"
	 width="90px" height="90px" viewBox="0 0 90 90" style="enable-background:new 0 0 90 90;" xml:space="preserve">
<g>
	<path d="M35.443,55.855l-6.968,6.117h-3.063c-0.197,0-0.357,0.16-0.357,0.357v1.474h10.379v-1.474c0-0.197-0.16-0.357-0.357-0.357
		h-2.992l4.873-4.276C36.283,57.252,35.751,56.611,35.443,55.855z"/>
	<path d="M35.958,44.75c0.389,0.615,0.738,1.317,0.993,2.107l3.272,3.495c0.257,0.004,0.522,0.008,0.792,0.015
		c-0.207-0.35-0.312-0.752-0.298-1.169c0.004-0.119,0.007-0.234,0.007-0.346c-0.003-1.272-0.248-2.324-0.748-3.215
		c-0.404-0.711-0.962-1.298-1.707-1.793c-0.52-0.349-1.084-0.605-1.614-0.794l-0.066,0.911
		C36.561,44.335,36.302,44.644,35.958,44.75z"/>
	<path d="M64.588,61.972h-4.637l-1.253-3.465c0.738-1.054,1.173-2.336,1.173-3.72c0-2.993-2.026-5.512-4.782-6.262l-1.85-5.117
		l1.601-1.405c0.247-0.217,0.272-0.594,0.055-0.841l-0.786-0.896c-0.217-0.248-0.594-0.272-0.841-0.055l-0.833,0.732l-1.042-2.881
		l1.591-1.408c0.231-0.205,0.253-0.558,0.048-0.789c-0.205-0.231-0.558-0.253-0.789-0.048l-2.214,1.96
		c0.125,0.117,0.229,0.254,0.307,0.406c0.105,0.202,0.165,0.429,0.167,0.667c0,0.051-0.002,0.102-0.007,0.154
		c-0.004,0.042-0.01,0.083-0.017,0.123l0.969,2.682l-6.474,5.683c0.048,0.445,0.073,0.9,0.071,1.364
		c0,0.162-0.003,0.326-0.008,0.491c-0.015,0.443-0.161,0.85-0.4,1.185c0.149,0.01,0.299,0.021,0.449,0.033l6.35-5.573l1.211,3.349
		c-1.821,0.205-3.414,1.162-4.46,2.554c-0.07,0.093-0.137,0.187-0.201,0.284c-1.072-0.147-2.172-0.254-3.222-0.331
		c-0.126-0.009-0.25-0.018-0.374-0.026c-0.389,0.381-0.922,0.614-1.512,0.614c-0.024,0-0.048,0-0.071-0.001
		c-0.044-0.001-0.088-0.007-0.132-0.011c-0.301-0.028-0.588-0.116-0.846-0.259c-0.195-0.108-0.374-0.246-0.531-0.414
		c-0.005-0.006-0.01-0.012-0.015-0.018c-0.017-0.019-0.033-0.039-0.049-0.058c-0.065-0.002-0.129-0.003-0.192-0.005
		c-0.353-0.009-0.672-0.014-0.95-0.018l-2.964-3.166l-2.898-3.096l1.424,0.104c0.045,0.003,0.088,0.001,0.131-0.006
		c0.27-0.04,0.486-0.262,0.507-0.546l0.072-0.989c-0.31-0.1-0.603-0.178-0.857-0.235c-0.006,0-0.012,0-0.018,0
		c-0.374,0-0.963-0.109-1.58-0.339c-0.329-0.123-0.665-0.28-0.982-0.475l-1.099-0.08l-0.013-0.014l-0.013,0.012l-2.217-0.162
		c-0.328-0.024-0.614,0.223-0.638,0.551l-0.087,1.189c-0.024,0.328,0.223,0.614,0.551,0.638l1.798,0.131l6.088,6.503l0.297,0.317
		c-0.13,0.06-0.254,0.13-0.375,0.204c-1.062,0.652-1.772,1.821-1.772,3.159c0,0.457,0.083,0.894,0.234,1.298
		c0.287,0.769,0.822,1.416,1.508,1.845c0.57,0.357,1.243,0.564,1.965,0.564c1.006,0,4.783-0.022,8.368-0.472
		c0.046,0.095,0.094,0.19,0.144,0.282c1.097,2.031,3.245,3.412,5.715,3.412c1.315,0,2.538-0.392,3.561-1.065l0.636,1.759h-2.652
		c-0.197,0-0.357,0.16-0.357,0.357v1.474h10.379v-1.474C64.946,62.132,64.786,61.972,64.588,61.972z M40.685,54.394
		c0,0.01-0.001,0.02-0.002,0.031c-0.016,0.621-0.504,1.124-1.119,1.164c-0.026,0.002-0.052,0.004-0.078,0.004
		c-0.043,0-0.085-0.002-0.126-0.007c-0.603-0.063-1.072-0.573-1.072-1.192c0-0.662,0.536-1.198,1.199-1.198
		c0.15,0,0.294,0.029,0.426,0.079l-0.749,0.826c-0.162,0.178-0.148,0.454,0.03,0.616c0.084,0.075,0.188,0.113,0.293,0.113
		c0.119,0,0.237-0.048,0.323-0.143l0.469-0.518l0.28-0.308C40.639,54.021,40.685,54.202,40.685,54.394z M39.487,57.204
		c-0.545,0-1.052-0.158-1.483-0.427c-0.457-0.285-0.825-0.697-1.057-1.188c-0.123-0.26-0.207-0.542-0.244-0.839
		c-0.015-0.117-0.025-0.235-0.025-0.356c0-1.551,1.258-2.809,2.809-2.809c0.247,0,0.485,0.035,0.713,0.095
		c0.236,0.062,0.459,0.152,0.667,0.269c0.054,0.031,0.108,0.063,0.16,0.097l-0.229,0.253l-0.015,0.017
		c-0.275-0.171-0.585-0.289-0.918-0.341c-0.123-0.019-0.249-0.032-0.377-0.032c-1.354,0-2.452,1.098-2.452,2.452
		c0,0.021,0.003,0.04,0.003,0.061c0.015,0.604,0.247,1.152,0.623,1.572c0.179,0.2,0.389,0.371,0.624,0.503
		c0.355,0.2,0.765,0.316,1.202,0.316c1.354,0,2.452-1.097,2.452-2.452c0-0.323-0.064-0.631-0.178-0.914
		c-0.084-0.209-0.197-0.403-0.332-0.579l0.244-0.27c0.148,0.183,0.271,0.385,0.37,0.601c0.161,0.354,0.254,0.747,0.254,1.162
		C42.296,55.946,41.038,57.204,39.487,57.204z M56.254,58.311c-0.783,0.639-1.783,1.023-2.873,1.023
		c-1.478,0-2.79-0.705-3.621-1.796c-0.066-0.087-0.129-0.177-0.19-0.269c-0.466-0.714-0.738-1.566-0.738-2.483
		c0-1.266,0.518-2.411,1.352-3.235c0.089-0.087,0.181-0.171,0.277-0.252c0.779-0.653,1.78-1.049,2.874-1.06
		c0.015,0,0.03-0.001,0.045-0.001c0.982,0,1.89,0.312,2.633,0.841c1.158,0.824,1.915,2.177,1.915,3.707
		c0,0.404-0.053,0.796-0.152,1.169C57.527,56.894,56.985,57.714,56.254,58.311z"/>
	<path d="M53.546,50.821c-0.055-0.002-0.11-0.004-0.165-0.004c-0.81,0-1.563,0.243-2.191,0.66c-0.109,0.072-0.214,0.149-0.314,0.231
		c-0.893,0.728-1.463,1.836-1.463,3.077c0,0.884,0.289,1.7,0.778,2.36c0.067,0.09,0.138,0.178,0.212,0.262
		c0.727,0.826,1.792,1.347,2.979,1.347c1.025,0,1.958-0.388,2.663-1.026c0.802-0.726,1.306-1.776,1.306-2.943
		c0-0.004,0-0.009,0-0.013c-0.003-0.956-0.344-1.832-0.91-2.516C55.744,51.417,54.71,50.869,53.546,50.821z M53.381,56.727
		c-0.17,0-0.334-0.024-0.491-0.065c-0.146-0.038-0.287-0.092-0.417-0.161c-0.614-0.326-1.033-0.971-1.033-1.715
		c0-1.072,0.869-1.94,1.94-1.94c0.165,0,0.324,0.023,0.477,0.062c0.186,0.047,0.361,0.121,0.521,0.217
		c0.143,0.086,0.275,0.189,0.391,0.309c0.341,0.35,0.551,0.827,0.551,1.353c0,0.225-0.04,0.439-0.11,0.64
		C54.946,56.183,54.228,56.727,53.381,56.727z"/>
	<path d="M43.81,39.937c0.688,0.519,1.518,0.929,2.466,1.16l-0.339,0.3c-0.231,0.205-0.253,0.558-0.048,0.789
		c0.204,0.231,0.558,0.253,0.789,0.048l1.06-0.938c0.088,0.003,0.177,0.005,0.266,0.005c0.008,0,0.016,0,0.023,0
		c0.084,0,0.167-0.002,0.249-0.004c0.581-0.016,1.052-0.446,1.142-0.999c-0.129,0.036-0.264,0.055-0.404,0.055
		c-0.047,0-0.093-0.002-0.139-0.007c-0.02-0.002-0.039-0.004-0.059-0.006c-0.51-0.048-0.997-0.116-1.459-0.201
		c-2.429-0.447-4.208-1.357-5.471-2.295C42.375,38.596,43,39.33,43.81,39.937z"/>
	<circle cx="45.36" cy="29.55" r="3.353"/>
	<path d="M32.946,41.558c0.025,0.017,0.051,0.033,0.077,0.05c0.208,0.132,0.426,0.247,0.646,0.346
		c0.722,0.324,1.459,0.474,1.868,0.461c0.259,0.058,0.543,0.134,0.838,0.226c0.099,0.031,0.2,0.064,0.301,0.099
		c0.585,0.204,1.2,0.48,1.758,0.855c0.714,0.474,1.339,1.079,1.802,1.895c0.46,0.819,0.783,1.872,0.786,3.361
		c0,0.115-0.002,0.233-0.006,0.356c-0.007,0.204,0.021,0.402,0.075,0.588c0.062,0.211,0.16,0.407,0.288,0.58
		c0.04,0.055,0.083,0.107,0.129,0.157c0.049,0.053,0.102,0.104,0.157,0.151c0.123,0.106,0.26,0.196,0.409,0.267
		c0.167,0.08,0.348,0.136,0.538,0.164c0.067,0.01,0.134,0.016,0.203,0.018c0.021,0.001,0.043,0.001,0.064,0.001
		c0.399,0,0.77-0.128,1.075-0.344c0.117-0.083,0.224-0.178,0.319-0.285c0.277-0.313,0.452-0.72,0.467-1.17
		c0.005-0.162,0.008-0.322,0.008-0.482c0.001-0.385-0.017-0.758-0.049-1.121c-0.167-1.881-0.762-3.472-1.624-4.723
		c-0.767-1.121-1.722-1.965-2.689-2.588c-0.922-0.593-1.854-0.995-2.701-1.275c0.052-0.07,0.107-0.137,0.16-0.206
		c0.744-0.967,1.58-1.864,2.345-2.657c-1.148-1.307-1.594-2.46-1.678-2.7c-0.265-0.781,0.152-1.63,0.931-1.894
		c0.155-0.053,0.317-0.08,0.48-0.08c0.294,0,0.572,0.087,0.808,0.239c0.275,0.178,0.491,0.445,0.603,0.77
		c0.008,0.02,0.021,0.054,0.042,0.101c0.042,0.096,0.116,0.251,0.227,0.446c0.118,0.208,0.291,0.479,0.522,0.779
		c0.176,0.228,0.385,0.474,0.636,0.724c0.106,0.105,0.215,0.207,0.326,0.306c-0.028-0.07-0.054-0.14-0.08-0.209
		c-0.211-0.57-0.348-1.09-0.43-1.459c-0.041-0.185-0.068-0.332-0.085-0.429c-0.008-0.049-0.014-0.085-0.017-0.107
		c-0.003-0.022-0.003-0.023-0.003-0.023c-0.019-0.148-0.066-0.286-0.133-0.411c-0.064-0.313-0.2-0.598-0.422-0.833
		c-0.9-0.954-2.825-1.368-4.635,0.063c-2.432,1.947-3.672,3.457-5.101,6.345c-0.027,0.054-0.054,0.108-0.08,0.163
		C31.16,39.713,31.889,40.857,32.946,41.558z"/>
	<path d="M41.979,34.245c-0.281-0.351-0.489-0.673-0.636-0.931c-0.116-0.204-0.194-0.368-0.241-0.474
		c-0.023-0.053-0.038-0.091-0.047-0.113c-0.002-0.005-0.004-0.009-0.005-0.013c-0.104-0.304-0.319-0.539-0.585-0.675
		c-0.277-0.142-0.609-0.177-0.927-0.069c-0.624,0.212-0.957,0.889-0.745,1.513v0c0.036,0.103,0.44,1.252,1.605,2.584
		c0.143,0.164,0.296,0.33,0.463,0.498c0.183,0.185,0.382,0.37,0.597,0.554c1.367,1.175,3.383,2.289,6.188,2.764
		c0.403,0.068,0.82,0.125,1.257,0.165c0.038,0.003,0.075,0.005,0.112,0.005c0.045,0,0.09-0.003,0.134-0.008
		c0.097-0.011,0.19-0.034,0.279-0.067c0.365-0.136,0.65-0.446,0.744-0.839c0.013-0.055,0.024-0.11,0.029-0.168
		c0.037-0.393-0.122-0.757-0.395-1.001c-0.183-0.163-0.417-0.273-0.681-0.297c-2.742-0.262-4.553-1.145-5.773-2.09
		c-0.302-0.234-0.568-0.471-0.802-0.704C42.332,34.664,42.143,34.449,41.979,34.245z"/>
</g>
</svg>
