<?xml version="1.0" encoding="utf-8"?>
<!-- Generator: Adobe Illustrator 17.0.0, SVG Export Plug-In . SVG Version: 6.00 Build 0)  -->
<!DOCTYPE svg PUBLIC "-//W3C//DTD SVG 1.1//EN" "http://www.w3.org/Graphics/SVG/1.1/DTD/svg11.dtd">
<svg version="1.1" id="Layer_1" xmlns="http://www.w3.org/2000/svg" xmlns:xlink="http://www.w3.org/1999/xlink" x="0px" y="0px"
	 width="90px" height="90px" viewBox="0 0 90 90" style="enable-background:new 0 0 90 90;" xml:space="preserve">
<g>
	<g>
		<path d="M57.681,42.272c-0.057-1.162,0.397-2.013,1.191-2.836c1.673-1.744,4.296-2.424,4.296-4.083
			c0-0.638-0.61-1.006-1.205-1.006c-1.134,0-1.46,0.95-1.446,1.914h-2.651c0.043-2.935,1.645-4.125,4.239-4.125
			c2.07,0,4.012,0.907,4.012,3.232c0,1.758-1.347,2.481-2.651,3.289c-0.723,0.454-1.489,0.837-2.013,1.205h4.636v2.41H57.681z"/>
	</g>
	<g>
		<path d="M24.056,43.536c0-2.624-0.086-4.862-0.172-6.712h5.508l0.301,2.84h0.129c0.903-1.334,2.754-3.313,6.369-3.313
			c2.711,0,4.863,1.377,5.766,3.572h0.086c0.774-1.076,1.721-1.937,2.71-2.539c1.162-0.688,2.453-1.033,4.002-1.033
			c4.045,0,7.1,2.84,7.1,9.122v12.392h-6.369V46.419c0-3.055-0.99-4.819-3.098-4.819c-1.507,0-2.582,1.032-3.012,2.28
			c-0.172,0.473-0.258,1.162-0.258,1.678v12.306H36.75v-11.79c0-2.668-0.947-4.475-3.012-4.475c-1.678,0-2.668,1.291-3.055,2.367
			c-0.215,0.516-0.258,1.118-0.258,1.635v12.264h-6.368V43.536z"/>
	</g>
</g>
</svg>
