<?xml version="1.0" encoding="utf-8"?>
<!-- Generator: Adobe Illustrator 17.0.0, SVG Export Plug-In . SVG Version: 6.00 Build 0)  -->
<!DOCTYPE svg PUBLIC "-//W3C//DTD SVG 1.1//EN" "http://www.w3.org/Graphics/SVG/1.1/DTD/svg11.dtd">
<svg version="1.1" id="Layer_1" xmlns="http://www.w3.org/2000/svg" xmlns:xlink="http://www.w3.org/1999/xlink" x="0px" y="0px"
	 width="90px" height="90px" viewBox="0 0 90 90" style="enable-background:new 0 0 90 90;" xml:space="preserve">
<g>
	<path d="M64.393,45.693c0-3.048-2.471-5.518-5.518-5.518h-27.75c-3.048,0-5.518,2.471-5.518,5.518v3.547
		c0,3.048,2.471,5.518,5.518,5.518h27.75c3.048,0,5.518-2.471,5.518-5.518V45.693z"/>
	<path style="fill:#EEEEEE;" d="M32.237,51.677l-1.844-7.767h1.878l0.588,3.204c0.173,0.922,0.334,1.924,0.461,2.708h0.023
		c0.127-0.841,0.311-1.775,0.507-2.731l0.657-3.181h1.867l0.622,3.273c0.173,0.91,0.3,1.74,0.415,2.604h0.023
		c0.115-0.864,0.288-1.775,0.449-2.697l0.634-3.181h1.786l-2.005,7.767h-1.901l-0.657-3.342c-0.15-0.784-0.277-1.51-0.369-2.397
		h-0.023c-0.138,0.876-0.265,1.613-0.449,2.397l-0.738,3.342H32.237z"/>
	<path style="fill:#EEEEEE;" d="M42.977,43.91v7.767h-1.763V43.91H42.977z"/>
	<path style="fill:#EEEEEE;" d="M50.818,43.91h4.748v1.44h-2.985v1.775h2.789v1.429h-2.789v3.123h-1.763V43.91z"/>
	<path style="fill:#EEEEEE;" d="M58.654,43.91v7.767h-1.763V43.91H58.654z"/>
	<circle style="fill:#EEEEEE;" cx="46.798" cy="47.866" r="1.731"/>
	<path style="fill:#EEEEEE;" d="M49.971,43.354c-1.798-1.709-4.635-1.709-6.433,0l0.99,0.99c0.607-0.565,1.393-0.875,2.226-0.875
		c0.834,0,1.619,0.31,2.226,0.875L49.971,43.354z"/>
	<path d="M40.521,40.106l0.121-0.118c1.643-1.598,3.813-2.478,6.113-2.478c2.299,0,4.47,0.88,6.113,2.478l0.121,0.118l-1.746,1.747
		l-0.118-0.113c-1.177-1.135-2.729-1.76-4.37-1.76c-1.641,0-3.193,0.625-4.369,1.76l-0.118,0.113L40.521,40.106z"/>
	<path style="fill:#EEEEEE;" d="M46.754,37.676c2.165,0,4.331,0.81,5.996,2.431l-1.511,1.512c-1.249-1.204-2.867-1.806-4.485-1.806
		c-1.618,0-3.236,0.602-4.485,1.806l-1.511-1.512C42.424,38.487,44.589,37.676,46.754,37.676 M46.754,37.343L46.754,37.343
		c-2.343,0-4.555,0.897-6.229,2.525l-0.242,0.235l0.239,0.239l1.511,1.512l0.231,0.231l0.235-0.227
		c1.145-1.104,2.656-1.713,4.254-1.713c1.598,0,3.108,0.608,4.254,1.713l0.235,0.227l0.231-0.231l1.511-1.512l0.239-0.239
		l-0.242-0.235C51.31,38.24,49.098,37.344,46.754,37.343L46.754,37.343z"/>
	<path d="M54.358,39.489l2.041-2.041c-5.344-5.251-13.945-5.251-19.289,0l2.041,2.041C43.369,35.364,50.14,35.364,54.358,39.489z"/>
	<path style="fill:none;stroke:#1D180E;stroke-width:0.7991;stroke-miterlimit:10;" d="M58.208,38.843"/>
	<path d="M58.875,56.49h-27.75c-3.998,0-7.25-3.252-7.25-7.25v-3.547c0-3.998,3.252-7.25,7.25-7.25h4.441v0.799h-4.441
		c-3.557,0-6.451,2.894-6.451,6.451v3.547c0,3.557,2.894,6.451,6.451,6.451h27.75c3.557,0,6.451-2.894,6.451-6.451v-3.547
		c0-3.557-2.894-6.451-6.451-6.451h-0.667v-0.799h0.667c3.998,0,7.25,3.252,7.25,7.25v3.547
		C66.125,53.238,62.872,56.49,58.875,56.49z"/>
</g>
</svg>
